<?xml version="1.0" encoding="UTF-8" standalone="no"?>
<!-- Created with Inkscape (http://www.inkscape.org/) -->

<svg
   version="1.1"
   id="svg1"
   width="1280"
   height="1277"
   viewBox="0 0 1280 1277"
   xmlns="http://www.w3.org/2000/svg"
   xmlns:svg="http://www.w3.org/2000/svg">
  <defs
     id="defs1" />
  <g
     id="g1">
    <path
       style="fill:#000000;stroke-width:1.59325"
       d="m 1148.1102,1173.6258 c -29.6982,-3.5724 -53.0617,-11.2754 -87.629,-28.8914 -40.2695,-20.522 -94.23157,-66.6288 -140.20642,-119.7967 l -16.72918,-19.3465 -24.24236,-0.024 c -45.18385,-0.044 -75.10415,-7.06425 -115.96407,-27.20871 -26.92282,-13.27331 -43.54504,-24.4778 -68.39773,-46.10466 -4.53149,-3.9433 -10.71231,-9.15817 -13.73518,-11.58858 -9.04717,-7.27404 -48.11907,-46.51129 -60.66244,-60.91919 -6.42985,-7.38561 -12.28938,-12.82965 -13.02118,-12.09785 -0.7318,0.7318 -1.10371,28.13328 -0.82649,60.89219 l 0.50405,59.56167 4.62193,10.00887 c 6.57267,14.23323 19.84488,26.24976 33.72942,30.53826 5.72239,1.7675 10.90575,3.1408 11.51857,3.0518 0.61283,-0.089 4.51981,-0.077 8.68219,0.027 6.96001,0.1735 7.56796,0.5087 7.56796,4.1718 v 3.9832 H 579.31824 485.3162 v -3.7494 c 0,-3.526 0.73543,-3.8105 12.34772,-4.777 28.60148,-2.3804 49.0406,-21.42856 53.10123,-49.48753 0.77203,-5.33468 1.41809,-47.74262 1.43571,-94.23983 0.03,-78.85601 -0.15853,-84.74806 -2.80322,-87.62902 -7.29492,-7.94679 -53.30994,-58.81385 -64.76904,-71.59858 -7.06884,-7.88661 -13.57001,-15.12218 -14.44702,-16.07905 -15.07692,-16.44975 -42.85336,-47.28769 -46.1494,-51.23598 l -4.32269,-5.17808 h 36.35689 36.35688 l 8.39609,9.16122 c 4.61783,5.03867 17.53727,19.29898 28.70986,31.6896 11.17261,12.39061 20.85153,22.20656 21.50875,21.81322 0.65722,-0.39333 1.19494,-14.65366 1.19494,-31.6896 v -30.97444 h 27.08534 27.08533 v 62.66823 62.66824 l 38.7641,41.29164 c 92.72861,98.7748 147.56291,145.81922 195.06238,167.35141 15.61454,7.07829 41.44868,15.83232 42.78358,14.49742 0.60022,-0.60024 -29.39581,-34.70128 -54.26481,-61.69106 -3.63347,-3.94331 -39.46034,-43.73485 -79.61528,-88.42565 -40.15495,-44.6908 -77.7625,-85.74652 -83.57235,-91.23493 -5.80984,-5.48842 -14.6499,-11.9411 -19.64458,-14.3393 -6.98485,-3.35378 -9.09969,-5.18791 -9.16122,-7.94518 -0.077,-3.44804 0.45198,-3.58613 13.861,-3.61892 44.22436,-0.10818 83.59103,-6.42521 104.0332,-16.69393 23.63052,-11.87032 42.77032,-30.45908 52.90683,-51.38362 l 6.36754,-13.14435 h 30.83041 30.8304 l -1.37998,3.58482 c -16.18583,42.04673 -46.10118,75.98931 -81.3904,92.34725 -10.95701,5.079 -26.03672,8.8322 -41.02632,10.21103 -6.3531,0.58441 -11.55109,1.36263 -11.55109,1.7294 0,0.36677 10.9748,12.63145 24.38846,27.25486 13.41366,14.6234 31.80623,34.8331 40.87236,44.91044 9.06614,10.07734 23.43249,25.85056 31.92522,35.05161 8.49274,9.20104 28.2063,30.70998 43.80793,47.79764 103.79241,113.67842 146.37265,156.61212 195.18285,196.80302 27.2097,22.4049 37.0212,28.9995 60.5436,40.6934 33.0065,16.4087 57.7045,22.6526 90.4158,22.8581 22.2294,0.1396 22.7025,0.2151 22.7039,3.6201 0,3.8327 -0.2857,3.9567 -17.5244,7.5683 -27.8086,5.826 -54.6497,6.8709 -84.4425,3.287 z M 181.29202,845.82016 c 0.4613,-3.24803 1.6318,-3.67752 12.45854,-4.5715 6.57218,-0.54267 14.45879,-1.90379 17.5258,-3.02473 8.56902,-3.13178 20.25977,-12.28253 25.59056,-20.03056 10.41109,-15.132 10.14002,-12.5633 10.70345,-101.42685 l 0.51267,-80.85769 h 27.74694 27.74694 l 0.45243,83.24757 0.45242,83.24756 3.98314,7.85156 c 5.0567,9.96779 17.65428,22.45636 27.01429,26.78055 4.79278,2.21417 11.6845,3.59138 20.38504,4.07365 12.56882,0.69668 13.14435,0.89424 13.14435,4.51192 v 3.78334 H 274.89575 180.7829 Z M 255.8875,589.63991 V 570.1908 l 8.73821,0.72464 c 9.67496,0.80232 15.16061,4.43013 15.16061,10.0261 0,3.60166 -4.47594,8.7629 -7.59938,8.7629 -3.73164,0 -3.32241,3.02728 1.26533,9.36048 2.61844,3.61464 5.83173,6.57207 7.14067,6.57207 1.30894,0 2.37989,0.71696 2.37989,1.59325 0,0.87629 -1.41132,1.59326 -3.13626,1.59326 -1.95466,0 -5.57513,-3.3014 -9.60978,-8.7629 -3.56044,-4.8196 -7.13042,-8.7629 -7.93326,-8.7629 -0.80286,0 -1.67645,3.70771 -1.94132,8.23935 -0.28074,4.80335 -1.3121,8.51305 -2.47314,8.89567 -1.52033,0.50103 -1.99157,-3.94563 -1.99157,-18.79281 z m 18.20862,-4.03241 c 3.47521,-3.47521 3.12737,-8.20321 -0.75644,-10.28175 -3.50789,-1.87737 -13.72833,-1.53511 -13.07073,0.43771 0.21907,0.65722 0.39831,3.70432 0.39831,6.77133 0,5.28872 0.2818,5.5764 5.46259,5.5764 3.00443,0 6.58926,-1.12666 7.96627,-2.50369 z m 55.00375,15.64804 c 7.81364,-19.30781 12.73341,-29.84353 14.15742,-30.31821 0.85389,-0.28463 4.56157,7.22712 8.23928,16.69276 3.67773,9.46565 7.04826,18.10648 7.4901,19.20184 0.44183,1.09536 0.0193,1.99157 -0.93902,1.99157 -0.95827,0 -2.72771,-2.35835 -3.93207,-5.24079 -2.13118,-5.10065 -2.43119,-5.23437 -11.21881,-5.00067 -4.96597,0.13208 -9.22227,0.51876 -9.45843,0.85934 -0.23617,0.34057 -1.27617,2.59087 -2.3111,5.00067 -3.3043,7.69387 -5.21512,4.69054 -2.02737,-3.18651 z m 20.78967,-6.95582 c 0,-2.90084 -5.44146,-17.34132 -6.53456,-17.34132 -1.054,0 -7.80474,15.34281 -7.80474,17.73827 0,0.75944 3.22634,1.38079 7.16965,1.38079 4.2136,0 7.16965,-0.73296 7.16965,-1.77774 z m 57.35717,-4.59528 v -19.11906 l 6.77133,0.01 c 20.38035,0.0268 29.6977,11.38027 22.8294,27.81842 -2.93329,7.02038 -9.69368,10.41081 -20.75871,10.41081 h -8.84202 z m 20.95194,14.21105 c 5.28484,-2.82836 8.11704,-11.62411 6.125,-19.02198 -1.99646,-7.41432 -5.64106,-9.75301 -15.7134,-10.08312 l -7.3804,-0.24187 -0.46703,13.40949 c -0.25687,7.37522 -0.10022,14.36563 0.3483,15.53423 0.99392,2.59011 12.49426,2.8615 17.08753,0.40325 z m 60.30406,-14.21105 c 0,-11.68386 0.6196,-19.11906 1.59325,-19.11906 0.97366,0 1.59326,7.4352 1.59326,19.11906 0,11.68386 -0.6196,19.11906 -1.59326,19.11906 -0.97365,0 -1.59325,-7.4352 -1.59325,-19.11906 z m 54.17066,-0.19729 V 570.1908 l 8.73821,0.72464 c 9.67496,0.80232 15.16062,4.43013 15.16062,10.0261 0,3.60166 -4.47595,8.7629 -7.59938,8.7629 -3.74487,0 -3.47139,3.2641 0.78474,9.36625 2.70533,3.87872 5.97257,6.57882 8.40789,6.94843 3.38549,0.5138 3.56478,0.79512 1.19494,1.87491 -4.25837,1.94025 -6.95425,0.19783 -13.24786,-8.56243 -7.70522,-10.7251 -10.25265,-10.54397 -10.25265,0.729 0,4.81959 -0.71696,8.7629 -1.59325,8.7629 -0.97456,0 -1.59326,-7.50095 -1.59326,-19.31635 z m 15.04987,-2.38004 c 1.41045,-0.54124 3.31866,-2.39329 4.24044,-4.11568 2.54787,-4.76072 -2.28878,-9.23954 -9.97771,-9.23954 -6.04054,0 -6.12609,0.0853 -6.12609,6.10747 0,3.35913 0.47798,6.58547 1.06218,7.16965 1.33384,1.33386 7.41419,1.37782 10.80118,0.0781 z m 58.23986,2.57733 c 0,-11.68386 0.6196,-19.11906 1.59325,-19.11906 0.97366,0 1.59326,7.4352 1.59326,19.11906 0,11.68386 -0.6196,19.11906 -1.59326,19.11906 -0.97365,0 -1.59325,-7.4352 -1.59325,-19.11906 z m 61.77868,16.63549 c -5.63907,-3.06021 -7.60802,-6.94648 -7.60802,-15.01662 0,-9.04707 3.853,-15.73353 10.71953,-18.60255 6.45616,-2.69756 14.94003,-1.78996 18.02601,1.92843 3.00955,3.62629 1.03069,4.20581 -4.6628,1.36553 -6.29583,-3.14077 -11.87431,-1.95281 -17.04888,3.63066 -5.41078,5.83831 -5.37977,16.63774 0.0634,22.08089 5.1132,5.11321 13.77732,5.31348 18.33277,0.42378 4.64333,-4.98405 4.10767,-7.66585 -1.53121,-7.66585 -2.62887,0 -4.77977,-0.71696 -4.77977,-1.59325 0,-0.87629 2.86786,-1.59325 6.37302,-1.59325 h 6.37302 v 8.7629 c 0,4.81959 -0.71696,8.7629 -1.59325,8.7629 -0.87629,0 -1.59326,-1.11611 -1.59326,-2.48022 0,-2.2448 -0.33611,-2.2448 -3.54102,0 -4.41099,3.08957 -11.83281,3.08816 -17.52955,-0.003 z m 73.64798,-16.63549 c 0,-11.68386 0.6196,-19.11906 1.59326,-19.11906 0.87629,0 1.59325,3.94331 1.59325,8.7629 v 8.76291 h 11.15278 11.15279 v -8.76291 c 0,-6.67919 0.56138,-8.7629 2.36087,-8.7629 1.97496,0 2.3005,3.12433 1.99157,19.11484 -0.27787,14.38221 -0.87969,19.11589 -2.43072,19.11906 -1.13378,0.002 -1.94503,-0.89199 -1.80278,-1.98735 0.14227,-1.09536 0.17366,-5.07143 0.0698,-8.8357 l -0.18872,-6.84413 -10.75447,0.47111 -10.75447,0.47111 -0.48158,8.36459 c -0.26486,4.60052 -1.16107,8.36459 -1.99157,8.36459 -0.86725,0 -1.50999,-8.13803 -1.50999,-19.11906 z m 88.87786,1.99157 -0.45221,-17.12749 -5.97471,-0.4945 c -11.74332,-0.97192 -5.70908,-3.48864 8.36459,-3.48864 8.49735,0 14.33929,0.64911 14.33929,1.59326 0,0.87629 -2.86786,1.59325 -6.37302,1.59325 h -6.37302 v 17.52581 c 0,22.84963 -2.92942,23.18008 -3.53092,0.39831 z m 7.1371,-47.79526 -29.05554,-0.47241 -0.95705,-4.34561 c -4.77781,-21.69415 -11.15647,-37.09341 -22.3875,-54.04755 -12.71049,-19.1875 -25.92346,-29.37666 -48.39463,-37.31938 -10.03595,-3.54734 -12.36365,-3.6779 -75.2813,-4.22288 l -64.92513,-0.56235 v 50.28475 50.28473 h -27.08533 c -24.6933,0 -27.09463,-0.24624 -27.19057,-2.7882 -0.0578,-1.5335 -0.0143,-9.06163 0.0959,-16.72917 0.11249,-7.79675 -0.45999,-13.94098 -1.29891,-13.94098 -0.82504,0 -3.5166,2.68861 -5.98126,5.9747 -2.46467,3.28609 -9.29659,10.81422 -15.18204,16.72918 l -10.70083,10.75447 -54.71196,-0.0661 -54.71197,-0.0661 16.72918,-4.41811 c 43.37929,-11.45629 71.41417,-36.91902 83.88448,-76.18825 4.38555,-13.81021 7.38942,-32.56147 5.51626,-34.43462 -0.70581,-0.70582 -7.87627,-2.1155 -15.93431,-3.13261 -13.35081,-1.68519 -14.60967,-2.1381 -14.1852,-5.10365 0.42738,-2.98571 1.74807,-3.29198 16.00006,-3.71034 l 15.53423,-0.456 -0.01,-10.69678 c -0.0111,-12.68352 -3.77018,-39.01696 -7.3265,-51.32478 -3.64226,-12.60519 -13.80348,-32.73417 -22.11785,-43.81451 -14.52398,-19.35576 -37.94141,-32.32878 -64.63319,-35.80614 -8.16873,-1.06421 -34.29188,-1.57354 -66.46944,-1.29598 l -53.01169,0.45726 0.0534,135.02835 0.0534,135.02835 h -27.8992 -27.8994 V 427.40986 c 0,-71.31815 -0.61918,-119.35499 -1.60545,-124.55563 -5.25565,-27.71296 -25.41162,-45.83302 -52.7426,-47.41518 -12.03149,-0.69645 -12.56866,-0.89226 -12.56866,-4.58147 v -3.85393 l 134.23172,0.60327 c 143.78851,0.64623 136.6836,0.27232 162.91031,8.5735 11.48836,3.63624 31.91538,14.10265 43.21044,22.14015 15.53768,11.05654 33.82633,31.75781 42.35613,47.9437 11.69756,22.19698 15.77375,38.29314 16.78339,66.27488 l 0.84795,23.50051 69.48842,0.005 c 75.44277,0.006 97.65885,1.34123 121.11674,7.27988 54.34657,13.75848 95.29754,53.44231 108.52696,105.16883 3.99849,15.63397 3.97066,16.68159 -0.43149,16.23943 -1.97165,-0.19805 -16.65982,-0.57267 -32.64037,-0.8325 z"
       id="path1" />
  </g>
</svg>
