<?xml version="1.0" encoding="UTF-8" standalone="no"?>
<!-- Created with Inkscape (http://www.inkscape.org/) -->

<svg
   width="500mm"
   height="500mm"
   viewBox="0 0 500 500"
   version="1.1"
   id="svg1"
   xml:space="preserve"
   xmlns="http://www.w3.org/2000/svg"
   xmlns:svg="http://www.w3.org/2000/svg"><defs
     id="defs1" /><path
     style="fill:#006a6a;fill-opacity:1;stroke:none;stroke-width:19.1482;stroke-linecap:round;stroke-linejoin:round;stroke-dasharray:none;stroke-opacity:1"
     d="m 139.08315,244.1706 c -0.34366,-1.31414 0.44249,-11.77556 1.33694,-17.79095 0.37947,-2.5521 1.43225,-7.4618 2.3395,-10.91044 7.05923,-26.83365 23.93165,-49.60139 47.87899,-64.6082 l 4.04906,-2.53738 1.21137,1.46806 c 0.66627,0.80744 5.08083,8.2185 9.81017,16.46903 4.72933,8.25053 12.31136,21.38494 16.84896,29.18756 4.5376,7.80263 8.25019,14.43894 8.25019,14.74736 0,0.30842 -0.99352,1.23766 -2.2078,2.06498 -9.79308,6.67222 -15.42004,15.99208 -17.04122,28.22516 l -0.53031,4.00156 -1.84651,0.32764 c -1.01558,0.1802 -17.14305,0.33968 -35.83883,0.35442 l -33.99232,0.0268 z"
     id="path4" /><path
     style="fill:#006a6a;fill-opacity:1;stroke:none;stroke-width:19.1482;stroke-linecap:round;stroke-linejoin:round;stroke-dasharray:none;stroke-opacity:1"
     d="m 288.92455,244.29714 c -0.26464,-0.49447 -0.48114,-2.02971 -0.48114,-3.41163 0,-5.39884 -2.89231,-13.08915 -7.21491,-19.18366 -2.43041,-3.42664 -7.48706,-8.23323 -10.02226,-9.52658 -1.56924,-0.80057 -1.81753,-1.11709 -1.55098,-1.97708 0.59784,-1.92854 2.95485,-6.28146 9.52566,-17.59186 3.61701,-6.226 10.54607,-18.22227 15.39792,-26.65837 4.85182,-8.4361 9.14892,-15.70439 9.54907,-16.15176 1.16722,-1.30499 2.55271,-0.96712 6.4399,1.57048 13.13968,8.57767 22.86052,18.18122 31.35175,30.97348 12.20802,18.39161 19.03247,38.86124 19.03247,57.08687 v 5.178 l -2.15647,0.29559 c -1.18603,0.16256 -17.28397,0.29557 -35.77316,0.29557 -32.76012,0 -33.62896,-0.023 -34.09785,-0.89905 z"
     id="path5" /><path
     style="fill:#006a6a;fill-opacity:1;stroke:none;stroke-width:19.1482;stroke-linecap:round;stroke-linejoin:round;stroke-dasharray:none;stroke-opacity:1"
     d="m 238.47751,355.7707 c -8.74409,-0.95135 -19.34239,-3.50676 -28.06982,-6.76807 -5.60174,-2.09327 -16.31848,-7.42599 -16.31848,-8.12015 0,-0.74689 2.4486,-5.113 15.47485,-27.59323 14.88598,-25.68969 19.89016,-34.16274 20.17656,-34.16274 0.12695,0 2.66759,0.99353 5.64584,2.20781 l 5.41504,2.20777 8.60483,0.14327 c 8.52702,0.14197 8.63838,0.13093 12.31718,-1.21862 2.04178,-0.74902 4.81065,-1.84864 6.15303,-2.44351 1.5332,-0.67944 2.60136,-0.91764 2.87284,-0.64059 0.57793,0.58984 32.77941,56.36858 34.04035,58.96401 0.54371,1.11909 0.86209,2.36419 0.70758,2.76687 -0.15454,0.40272 -2.42731,1.80931 -5.05057,3.12573 -9.95478,4.99552 -21.23138,8.67453 -32.6869,10.66417 -6.5206,1.13251 -22.49571,1.60565 -29.28233,0.86728 z"
     id="path6" /><path
     style="fill:#006a6a;fill-opacity:1;stroke:none;stroke-width:16.844;stroke-linecap:round;stroke-linejoin:round;stroke-dasharray:none;stroke-opacity:1"
     d="m 245.42469,268.79539 c -8.99784,-1.95706 -16.02934,-8.65228 -18.38701,-17.50766 -0.31869,-1.19702 -0.56697,-4.11795 -0.5697,-6.7027 -0.004,-3.78125 0.16138,-5.0391 0.9472,-7.20404 2.73945,-7.54706 8.51869,-13.11437 15.95671,-15.37153 3.52545,-1.06984 9.69941,-1.16128 12.96333,-0.192 4.61528,1.37059 8.17572,3.55035 11.06825,6.77617 5.64346,6.29374 7.49716,12.97767 5.90587,21.29467 -0.864,4.51556 -2.62294,8.00757 -5.83243,11.57888 -3.58723,3.99165 -8.19953,6.49063 -13.59664,7.36678 -4.17889,0.67838 -5.18032,0.67381 -8.45558,-0.0386 z"
     id="path7" /><path
     style="fill:#006a6a;fill-opacity:1;stroke:none;stroke-width:13.6781;stroke-linecap:round;stroke-linejoin:round;stroke-dasharray:none;stroke-opacity:1"
     d="m 291.86835,244.85958 c -1.42914,-0.0868 -2.35942,-0.31135 -2.62738,-0.63424 -0.22816,-0.27494 -0.52972,-1.98267 -0.6701,-3.79495 -0.14037,-1.8123 -0.57161,-4.45695 -0.9583,-5.877 -0.89123,-3.2732 -3.78825,-9.33894 -5.95124,-12.46069 -2.0505,-2.95938 -6.77439,-7.66967 -9.63411,-9.60636 -1.17289,-0.79429 -2.18979,-1.61612 -2.25987,-1.8263 -0.22399,-0.672 3.83921,-8.06756 15.83604,-28.82369 15.92759,-27.55688 18.57945,-32.00342 19.3241,-32.40193 1.01219,-0.54172 2.6183,0.17207 7.04613,3.13142 7.24879,4.8448 14.13546,10.70923 19.36172,16.48772 11.45584,12.66635 21.09062,29.91595 25.77763,46.15086 2.48043,8.59168 3.53805,15.7729 3.53805,24.02288 0,4.56191 -0.0637,5.15172 -0.58102,5.37757 -0.59509,0.25983 -64.20551,0.49739 -68.20165,0.25471 z"
     id="path8" /><path
     style="fill:#006a6a;fill-opacity:1;stroke:none;stroke-width:13.6781;stroke-linecap:round;stroke-linejoin:round;stroke-dasharray:none;stroke-opacity:1"
     d="m 238.30144,355.59209 c -7.5121,-0.75328 -20.97025,-4.09348 -28.57592,-7.09233 -4.10561,-1.6188 -13.38847,-6.09842 -14.72221,-7.10443 l -0.76118,-0.57416 1.0739,-2.13161 c 2.93374,-5.82319 33.73486,-58.75462 34.4451,-59.19354 0.1402,-0.0866 2.63739,0.81449 5.54933,2.00252 l 5.29442,2.16006 8.14485,0.182 c 9.35877,0.20913 9.65413,0.16309 16.49467,-2.57085 2.31819,-0.92655 4.51944,-1.64018 4.89173,-1.58595 0.76349,0.11125 0.32453,-0.60026 11.32633,18.35976 10.72168,18.47727 21.819,37.85007 22.86419,39.91446 1.39188,2.74912 1.26271,3.15967 -1.50245,4.77461 -8.28394,4.83809 -23.33002,9.97565 -34.80692,11.88508 -7.37879,1.22762 -22.30839,1.71715 -29.71584,0.97438 z"
     id="path9" /><path
     style="fill:#006a6a;fill-opacity:1;stroke:none;stroke-width:13.6781;stroke-linecap:round;stroke-linejoin:round;stroke-dasharray:none;stroke-opacity:1"
     d="m 139.41293,244.60832 c -0.51521,-1.3426 0.22749,-12.12502 1.29351,-18.77924 0.68382,-4.26848 2.48507,-11.64626 3.94829,-16.17192 7.81735,-24.1786 24.13658,-44.8673 46.40729,-58.83282 1.77524,-1.11322 3.37582,-2.02404 3.55684,-2.02404 0.73363,0 2.99606,3.75985 19.67909,32.70402 14.90061,25.85176 16.28953,28.3422 16.09263,28.85528 -0.0931,0.24258 -1.59025,1.50911 -3.32704,2.81451 -9.12728,6.86021 -14.17778,15.89197 -15.83071,28.3099 -0.36006,2.70494 -0.43373,2.88431 -1.26575,3.08126 -0.48591,0.11503 -16.50994,0.30056 -35.60898,0.4123 -32.67548,0.19116 -34.73848,0.16936 -34.94517,-0.36925 z"
     id="path10" /><path
     style="fill:#006a6a;fill-opacity:1;stroke:none;stroke-width:16.6706;stroke-linecap:round;stroke-linejoin:round;stroke-dasharray:none;stroke-opacity:1"
     d="m 388.03188,421.78779 c -0.64723,-0.61204 -3.6023,-3.75314 -6.56682,-6.98028 -2.96456,-3.22713 -12.31652,-13.21734 -20.7822,-22.20049 -8.46568,-8.98314 -15.44545,-16.47245 -15.5106,-16.64287 -0.14417,-0.37705 16.74018,-16.75174 17.43259,-16.90635 0.48012,-0.10719 3.91334,3.4102 17.28795,17.7121 7.84479,8.38862 8.07803,8.5892 9.79452,8.42257 1.15369,-0.11204 3.30298,-2.29319 18.06827,-18.33662 46.77804,-50.82732 66.70263,-72.23099 67.23945,-72.23099 0.40151,0 15.53514,14.16078 16.65466,15.58399 0.7297,0.92764 0.75164,1.12052 0.21958,1.92925 -0.66748,1.01464 -3.78799,4.42163 -28.62015,31.24773 -9.68281,10.46035 -22.79131,24.66373 -29.12993,31.56313 -29.72641,32.35605 -44.21488,47.95163 -44.54765,47.95163 -0.1996,0 -0.89248,-0.50072 -1.53967,-1.1128 z"
     id="path11" /><path
     style="fill:#111827;fill-opacity:1;stroke:none;stroke-width:22.1301;stroke-linecap:round;stroke-linejoin:round;stroke-dasharray:none;stroke-opacity:1"
     d="M 242.39379,489.82214 C 225.55426,483.30448 203.75255,471.86933 183.46194,458.91205 135.21281,428.10082 97.745055,387.13954 74.803827,340.12257 55.935564,301.45293 45.729962,259.17103 42.259329,205.29046 c -0.62478,-9.69952 -0.731628,-61.37772 -0.194923,-94.27505 0.304955,-18.6923 0.374166,-19.7157 1.483549,-21.93556 0.766173,-1.5331 1.849201,-2.68237 3.170537,-3.36444 1.19739,-0.61809 6.994571,-1.8966 14.372622,-3.16975 31.724741,-5.4744 60.353076,-13.652852 96.428266,-27.547316 22.55164,-8.685833 37.75515,-15.513152 68.1284,-30.593916 17.50725,-8.692589 22.92467,-11.15574 24.53581,-11.15574 1.60668,0 6.47797,2.202383 21.84921,9.878385 66.62689,33.271751 113.26035,49.872992 166.87677,59.407167 13.87155,2.46667 15.86817,3.21193 17.67741,6.59833 l 1.21588,2.27577 0.18642,55.59812 c 0.18805,56.09384 0.0765,60.92682 -1.83538,79.5026 -2.88106,27.9923 -7.18362,49.12946 -15.36312,75.47375 -2.75041,8.85841 -3.33665,9.98245 -9.55289,18.31563 -1.34349,1.80104 -2.70382,3.7238 -3.02292,4.27282 -0.54681,0.94075 -0.90664,0.85257 -6.24425,-1.52991 -3.11524,-1.39052 -8.41395,-3.25133 -11.77494,-4.13514 -5.75764,-1.51405 -6.70086,-1.60682 -16.31729,-1.60546 -9.16273,0 -10.75574,0.14116 -15.57822,1.36726 -22.64398,5.75718 -39.57491,21.49478 -46.72034,43.42731 -2.69933,8.28542 -3.13194,11.70467 -2.8284,22.35371 0.22742,7.97961 0.48002,10.14709 1.68006,14.41742 3.54565,12.61705 8.15344,20.88083 16.33523,29.29621 12.16096,12.50808 28.57845,19.22262 47.11167,19.26805 17.96519,0.044 33.5656,-5.88078 45.61252,-17.323 10.11136,-9.60377 15.99023,-20.6632 19.13578,-35.99858 0.99517,-4.85179 1.11257,-6.72937 0.83977,-13.42948 -0.17444,-4.28403 -0.45972,-8.76942 -0.634,-9.96754 -0.31337,-2.15475 -0.25395,-2.2482 5.46499,-8.5949 3.18,-3.52904 6.06872,-6.48825 6.41939,-6.576 0.85183,-0.21322 2.19845,2.73273 3.17087,6.93662 2.09202,9.04404 2.39517,26.76296 0.61009,35.66017 -5.76018,28.70972 -26.98926,52.65386 -55.00541,62.0401 -15.3547,5.14428 -33.4513,5.67389 -47.74009,1.39704 -11.77518,-3.52448 -17.6579,-6.70003 -31.07832,-16.77643 l -1.63515,-1.22771 -5.6168,4.07214 c -22.08188,16.00934 -44.76694,28.73471 -71.68987,40.21508 -10.91146,4.65283 -12.0836,4.77187 -19.33847,1.96392 z m 17.13426,-18.68822 c 20.56384,-9.00343 44.0229,-22.19405 61.68731,-34.68568 2.87534,-2.03337 5.46308,-4.13643 5.75051,-4.67347 0.41037,-0.76682 0.003,-1.77225 -1.89744,-4.68289 -1.33098,-2.03853 -3.76497,-6.42251 -5.40881,-9.74215 -2.03611,-4.11185 -3.1955,-5.90973 -3.63723,-5.6404 -0.3566,0.21743 -5.58672,3.69223 -11.62247,7.7218 -17.88747,11.94201 -41.9603,25.35275 -50.93807,28.37716 -3.32717,1.12085 -3.49088,1.1265 -6.37034,0.22083 -4.11073,-1.29301 -20.21023,-9.34723 -30.41446,-15.21572 -33.82978,-19.45562 -63.80628,-45.68491 -84.30209,-73.76391 -29.62973,-40.5924 -45.634225,-90.23328 -50.352065,-156.17634 -0.3753,-5.24571 -0.53098,-21.14551 -0.42078,-42.97438 0.16854,-33.38607 0.21404,-34.72637 1.24928,-36.79682 0.68234,-1.36468 1.85839,-2.57671 3.22308,-3.32166 1.1818,-0.64511 8.19199,-2.76895 15.578215,-4.71965 46.43072,-12.26229 82.40027,-25.86197 130.21255,-49.231903 13.66912,-6.68127 15.54751,-7.456947 18.0578,-7.456947 2.47114,0 4.25221,0.703721 15.09458,5.96405 52.24691,25.34835 85.36497,37.93933 132.78751,50.48384 7.8096,2.06584 14.83525,4.08496 15.61259,4.48693 1.98266,1.02528 3.23548,2.54029 3.85474,4.66139 0.29223,1.00092 0.78367,11.85168 1.09208,24.11281 1.51214,60.11117 -2.87501,100.31954 -15.37092,140.87415 -1.61567,5.24353 -2.93756,9.88257 -2.93756,10.309 0,1.11859 0.49553,1.30621 5.16457,1.95563 2.30999,0.32128 6.83776,1.26971 10.06164,2.10762 3.2239,0.83793 6.1665,1.40647 6.53914,1.26347 1.85335,-0.71117 9.15407,-25.88317 12.59407,-43.42268 4.36881,-22.27544 6.70998,-45.78022 7.44308,-74.72746 0.32094,-12.6721 -0.27268,-86.16459 -0.69952,-86.60318 -0.0887,-0.0912 -4.71994,-1.00844 -10.29148,-2.03826 -28.99408,-5.35915 -53.52801,-12.364 -86.4096,-24.671445 -24.53475,-9.183247 -45.74701,-18.473523 -74.29133,-32.537152 -12.81926,-6.316001 -18.97646,-9.077704 -20.23858,-9.077704 -1.23768,0 -5.79465,1.983236 -14.34337,6.242381 -52.85906,26.335434 -97.74833,43.83391 -139.035205,54.19793 -7.36428,1.8486 -28.54533,6.2142 -33.887749,6.98456 -1.354497,0.19532 -2.760995,0.53945 -3.125533,0.76474 -0.500665,0.30944 -0.799175,7.42651 -1.22028,29.09434 -1.661477,85.49072 2.470032,125.17006 17.769599,170.6603 21.309543,63.35967 63.313958,114.16509 125.214028,151.44955 14.11128,8.4997 45.41041,23.73474 48.82786,23.76724 0.70811,0.007 4.93839,-1.58622 9.40065,-3.53992 z m 2.20421,-45.30528 c 14.36748,-7.09178 27.83799,-15.37635 42.57149,-26.18219 l 7.65481,-5.61418 v -10.80486 c 0,-10.57197 0.0412,-10.97208 1.912,-18.5605 2.06357,-8.37052 3.8061,-13.18251 7.2846,-20.11678 8.12086,-16.18854 22.64047,-29.71102 39.83171,-37.09633 3.91447,-1.68165 14.68601,-5.11287 18.75226,-5.97343 1.64418,-0.34798 2.00126,-1.14972 6.6573,-14.94711 8.86843,-26.28025 13.86337,-55.75838 15.3236,-90.43365 0.61598,-14.62706 0.50404,-62.14532 -0.1479,-62.79722 -0.20024,-0.20022 -5.27659,-1.68214 -11.28077,-3.29316 -16.47273,-4.41991 -20.87646,-5.74375 -37.23854,-11.19451 -29.12447,-9.70234 -58.22467,-21.70599 -89.39005,-36.87285 -7.21078,-3.50918 -13.43837,-6.380334 -13.83908,-6.380334 -0.40072,0 -4.29108,1.781594 -8.64526,3.959104 -44.09394,22.05122 -95.68353,41.80175 -133.61676,51.15377 -4.43173,1.0926 -8.388475,2.24599 -8.792755,2.56308 -0.6127,0.48059 -0.687,5.6756 -0.44641,31.21155 0.2819,29.92128 0.5672,36.67435 2.292705,54.27091 6.53622,66.65587 26.83169,115.51626 63.88625,153.80318 12.59948,13.01849 25.58535,23.67333 42.97565,35.26119 20.88632,13.91744 33.30993,20.64564 40.55707,21.96433 3.26548,0.59416 6.32844,-0.2824 13.69808,-3.92001 z"
     id="path12" /></svg>
